<svg width="779" height="779" viewBox="0 0 779 779" fill="none" xmlns="http://www.w3.org/2000/svg">
<g clip-path="url(#clip0_1_2)">
<path d="M289.56 584.95V576.28H260.31H249.06V620.83H260.31V600.92H289.56V592.26H260.31V584.95H289.56Z" fill="#EF8127"/>
<path d="M350.85 622.09L361.31 621.92L346.11 600.69V600.21H345.76L327.06 574.09L308.35 600.21H307.41V601.52L292.68 622.08L303.14 622.25L312.51 608.87H341.6L350.85 622.09ZM318.57 600.21L327.05 588.1L335.53 600.21H318.57Z" fill="#EF8127"/>
<path d="M516.75 622.09L527.21 621.92L512 600.69V600.21H511.65L493 574.09L474.29 600.21H473.35V601.52L458.62 622.08L469.08 622.25L478.45 608.87H507.5L516.75 622.09ZM484.47 600.21L493 588.1L501.48 600.21H484.47Z" fill="#EF8127"/>
<path d="M449.65 622.95L438.85 573.39L434.37 579.36L434.36 579.35L409.59 609.8L386.41 581.3L386.42 581.23L380.01 572.68L369.21 622.25H380.46L384.79 592.47L409.37 623.28L409.58 623.03L409.8 623.29L434.03 592.92L438.4 622.95H449.65Z" fill="#EF8127"/>
<path d="M384 0C601.31 -3.1 778 172.62 778.52 388.23C779 602.84 606.3 776.82 390.25 778.47C177 780.11 1.51 606 0 391.82C-1.51 177.64 170.94 2.56 384 0ZM389.23 767C597.57 767 767 597.88 767.12 390C767.19 180.4 597.85 11.15 388.25 11.34C180.14 11.53 11.34 181.07 11.33 389.93C11.31 597.75 181 767.1 389.19 767H389.23Z" fill="black"/>
<path d="M388.89 688.25C349.564 688.256 310.624 680.495 274.305 665.413C237.985 650.332 205.002 628.227 177.247 600.366C149.492 572.505 127.513 539.438 112.57 503.062C97.6269 466.685 90.0146 427.716 90.17 388.39C90.45 223.39 224.67 89.76 389.54 90.03C556.33 90.29 690.4 226.83 688.35 393.03C686.33 556.3 552.71 688.85 388.89 688.25ZM101.42 389.19C101.12 547.65 230.13 676.67 389.2 677C547 677.28 676.65 548.34 677 390.73C677.37 230.6 549 101.8 388.73 101.53C230.6 101.27 101.72 230.3 101.42 389.19Z" fill="black"/>
<path d="M107.85 564C100.32 565.91 92.78 567.81 85.25 569.75C82.46 570.47 80 571.21 78.47 567.4C77.2 564.25 74.47 561.95 78.53 558.45C84.0832 553.461 89.1096 547.916 93.53 541.9C87.29 545.52 81.01 549.06 74.84 552.79C72.47 554.22 70.56 554.79 69.48 551.58C68.69 549.24 64.92 547.05 69.73 544.46C79.55 539.19 89.17 533.55 98.73 527.86C101.26 526.36 102.29 526.86 103.73 529.23C109.28 538.57 109.35 538.51 101.92 546.29C97.78 550.623 93.6567 554.957 89.55 559.29C89.39 559.46 89.49 559.88 89.42 560.62C97.76 558.62 106.01 556.84 114.13 554.62C117.02 553.82 118.24 554.62 119.64 556.99C125.12 566.31 125.2 566.26 116 571.56C108.36 575.96 100.59 580.16 93.12 584.84C89.6 587.05 88.58 585.13 87.26 582.59C85.94 580.05 83.72 578.13 88.06 575.98C94.88 572.58 101.39 568.54 108.06 564.77L107.85 564Z" fill="black"/>
<path d="M700.31 280.05C708.31 280.05 716.22 280.3 724.13 279.95C727.89 279.78 729.75 280.74 730.95 284.46C733.87 293.54 734.08 293.51 725.19 296.54C716.53 299.54 707.74 302.09 699.19 305.41C694.77 307.13 694.52 304.41 693.56 301.72C692.6 299.03 691.51 297.06 695.71 295.9C703.181 293.776 710.484 291.102 717.56 287.9C709.56 288.29 701.63 288.33 693.73 289.17C688.79 289.7 688.73 286.34 687.32 283.42C685.84 280.26 687.05 278.72 689.64 277.03C696.224 272.787 702.543 268.145 708.56 263.13C701.56 265.55 694.48 267.82 687.56 270.45C684.22 271.72 682.89 270.91 681.99 267.55C681.22 264.68 679.99 262.55 684.21 261.21C694.69 257.97 705.09 254.46 715.43 250.79C718.43 249.7 719.36 250.53 720.31 253.36C723.68 263.31 723.8 263.26 715.15 269.36C710.517 272.613 705.893 275.873 701.28 279.14C700.936 279.42 700.612 279.724 700.31 280.05Z" fill="black"/>
<path d="M496.08 716.55C494.01 709.24 492.15 701.86 489.8 694.64C488.61 691 490.34 690.32 493.15 689.74C495.64 689.22 498.04 687.44 499.15 691.8C501.97 702.74 505.06 713.61 508.28 724.44C509.08 727.12 508.08 727.56 505.93 728.53C498.65 731.83 493.11 731.06 488.13 724.01C484.13 718.38 478.74 713.75 473.04 707.68C475.57 716.39 477.48 723.88 479.95 731.18C481.28 735.09 479.51 735.96 476.4 736.9C473.29 737.84 471.4 737.74 470.48 733.9C467.85 723.43 464.88 713.04 461.82 702.68C460.96 699.79 461.61 698.99 464.41 697.68C471.74 694.33 476.87 695.86 481.68 702.31C485.68 707.66 490.79 712.16 495.41 717.03L496.08 716.55Z" fill="black"/>
<path d="M207.23 98.56C210.96 105.04 214.45 111.68 218.53 117.95C221 121.76 218.21 122.4 216.02 123.66C213.83 124.92 212.2 126.78 210.18 123.02C204.82 113.02 199.08 103.29 193.33 93.54C191.96 91.21 192.71 90.4 194.65 88.9C200.76 84.18 206.21 83.31 212.65 88.78C217.65 93.05 223.75 96.06 229.38 99.64C230.72 98.19 229.3 97.41 228.83 96.64C225.83 91.28 222.64 86 219.57 80.64C217.16 76.45 219.48 72.44 224.43 72.04C225.76 71.94 226.18 72.84 226.65 73.66C232.55 83.8867 238.423 94.13 244.27 104.39C244.738 105.047 244.964 105.845 244.91 106.65C243.99 109.73 232.68 113.55 229.91 111.77C222.577 107.063 215.243 102.34 207.91 97.6L207.23 98.56Z" fill="black"/>
<path d="M312.83 724.52C314.74 717.52 316.75 710.62 318.5 703.62C319.32 700.3 320.68 699.39 324.09 700.56C327.15 701.62 329.53 701.82 328.09 706.39C324.75 716.64 322.09 727.11 319.24 737.52C318.47 740.35 317.42 740.68 314.39 740.3C306.39 739.3 302.75 735.39 302.06 727.3C301.48 720.57 299.45 713.97 298.01 707.11C295.58 708.82 296.24 711.46 295.56 713.53C294.01 718.26 292.86 723.11 291.5 727.91C290.06 733.04 286.68 734.12 282.3 731.07C280.72 729.97 281.3 728.75 281.66 727.57C284.72 716.523 287.833 705.5 291 694.5C291.118 693.693 291.465 692.936 292 692.32C294.18 690.69 305.52 695.76 306.14 698.62C307.84 706.4 309.48 714.21 311.14 722C311.34 722.9 311.09 724.08 312.83 724.52Z" fill="black"/>
<path d="M382.05 59.54C382.05 51.01 382.18 43.69 381.99 36.39C381.9 33.28 382.55 31.69 386.04 32.01C388.74 32.26 391.63 31.12 391.6 35.89C391.54 46.89 391.94 57.89 392.32 68.89C392.43 71.89 391.42 72.6 388.43 72.99C380.92 73.99 376.09 71.87 373.15 64.32C370.64 57.9 366.62 52.08 362.7 46.11C363.07 53.53 362.7 60.89 363.31 68.18C363.74 73.18 361.31 73.34 357.6 73.65C352.79 74.04 353.6 70.88 353.5 68.18C353.24 57.69 353.13 47.18 352.79 36.71C352.7 33.96 353.52 33.27 356.31 32.78C364.11 31.41 369.07 33.7 372.14 41.39C374.57 47.43 378.38 52.94 382.05 59.54Z" fill="black"/>
<path d="M170.72 638.86C166.03 644.86 161.15 650.72 156.72 656.86C153.92 660.77 152.21 657.91 149.95 656.51C147.22 654.81 147 653.29 149.13 650.7C156.197 642.093 163.123 633.363 169.91 624.51C171.5 622.45 172.37 622.51 174.57 623.85C181.25 627.85 184.35 632.56 181.44 640.85C179.23 647.16 178.82 654.1 178.28 661.08C182.95 655.08 187.85 649.3 192.19 643.08C194.52 639.76 196.07 640.79 198.38 642.74C200.54 644.56 203.05 645.58 200.05 649.14C192.88 657.66 186.05 666.51 179.27 675.32C177.75 677.32 176.89 677.4 174.58 676.05C167.47 671.89 164.89 666.81 167.77 658.52C169.91 652.33 170.38 645.52 171.59 639.06L170.72 638.86Z" fill="black"/>
<path d="M572.31 114C576.31 107.73 580.38 101.55 584.15 95.17C585.84 92.31 587.27 91.17 590.21 93.63C592.42 95.45 595.46 96.06 592.52 100.26C586.24 109.26 580.6 118.71 574.83 128.05C573.41 130.34 572.44 130.38 569.83 129.26C561.93 125.86 559.91 120.4 561.53 112.26C562.643 105.773 562.978 99.1765 562.53 92.61C558.62 98.83 554.65 105.01 550.84 111.29C549.19 114.01 548.04 115.73 544.47 113.12C541.47 110.9 540.04 109.76 542.63 106C548.63 97.24 554.25 88.14 559.81 79.06C561.35 76.56 562.31 76.29 565.14 77.65C571.91 80.92 575.07 85.1 573.35 93.12C571.92 99.8 572.09 106.83 571.56 113.71L572.31 114Z" fill="black"/>
<path d="M522.92 58.94C534.49 59.05 544.26 67.67 544.19 77.71C544.11 90.09 534.67 101.71 524.66 101.71C513.02 101.71 502.84 92.87 502.91 82.71C503 69.8 512.2 58.84 522.92 58.94ZM514.14 82.37C513.82 87.23 515.55 89.93 519.3 91.37C523.05 92.81 525.81 91.59 528.11 88.69C530.608 85.5498 532.288 81.839 533 77.89C533.423 76.2514 533.254 74.516 532.522 72.9901C531.79 71.4642 530.543 70.2458 529 69.55C525.66 67.81 522.51 68.08 519.85 70.79C516.831 73.992 514.842 78.0258 514.14 82.37Z" fill="black"/>
<path d="M70.91 305C57.91 304.73 47.49 296.14 47.65 285.77C47.83 273.37 56.05 263.98 66.53 264.19C80.12 264.46 90.53 273.19 90.22 284.06C89.89 296.53 81.87 305.23 70.91 305ZM65.71 275.55C61.85 275.5 58.84 276.85 57.55 280.76C56.8967 282.411 56.853 284.241 57.4265 285.921C58.0001 287.602 59.1535 289.023 60.68 289.93C64.1393 292.283 68.181 293.636 72.36 293.84C76.24 294.07 79.14 292.24 80.28 288.35C81.42 284.46 80.4 281.44 76.97 279.27C73.5599 277.167 69.7025 275.896 65.71 275.56V275.55Z" fill="black"/>
<path d="M628.29 650C617.9 650 606.07 638 606.12 627.45C606.12 617.87 617.12 606.99 626.58 607.08C636.58 607.18 648.86 619.69 648.95 629.85C649 639.24 638 650 628.29 650ZM638.29 631.65C638.29 626.28 629.74 617.78 624.38 617.76C623.172 617.753 621.979 618.034 620.901 618.579C619.823 619.125 618.889 619.918 618.178 620.895C617.467 621.872 616.998 623.004 616.811 624.197C616.624 625.391 616.723 626.612 617.1 627.76C617.985 630.28 619.393 632.585 621.232 634.522C623.071 636.459 625.299 637.985 627.77 639C632.51 641 638.31 636.77 638.28 631.64L638.29 631.65Z" fill="black"/>
<path d="M460.3 724.88C460.5 736.73 452.9 743.88 439.85 744.15C427.98 744.38 420.49 735.67 420.29 721.4C420.13 709.73 427.97 702.4 440.93 702.08C452.84 701.79 460 710.27 460.3 724.88ZM431.71 720.32C431.783 723.965 432.636 727.552 434.21 730.84C436.02 734.18 438.82 735.6 442.46 734.91C446.1 734.22 448.37 732.12 448.91 728.31C449.294 724.678 448.807 721.007 447.49 717.6C445.78 712.6 442.49 710.35 438.32 711.16C434 712 431.74 715.16 431.71 720.32Z" fill="black"/>
<path d="M702.24 534C696.24 533.24 687.99 530.49 683.77 521.44C680.47 514.37 683.6 501.79 689.77 495.44C690.77 494.38 691.77 493.32 692.95 494.9C694.35 496.84 698.08 497.28 696.95 500.83C696.71 501.57 695.89 502.1 695.44 502.83C692.87 506.83 690.44 510.94 692.88 515.83C695.5 520.98 700.43 522.67 705.71 523.18C710.71 523.66 713.88 521.05 715.29 516.27C716 513.9 715.38 512.73 713 511.75C710.44 510.7 709.21 511.39 708.68 513.8C707.78 517.92 705.41 516.65 702.75 515.8C699.51 514.75 699.89 512.97 700.97 510.55C702.74 506.63 703.39 500.55 706.26 499.25C709.13 497.95 714.12 501.48 718.12 503.03C727.25 506.56 727.31 506.61 724.56 516.12C723.748 519.168 722.615 522.121 721.18 524.93C717.8 531 712.68 534.56 702.24 534Z" fill="black"/>
<path d="M103.24 178.83C104 171.57 109.34 165.27 116.37 160.01C118.04 158.77 119.31 159.21 119.85 160.93C120.51 163.02 123.75 164.4 121.79 167.21C121.35 167.85 120.41 168.12 119.79 168.65C116.01 171.84 112.44 175.24 113.44 180.81C114.27 185.48 120.79 191.06 125.95 191.9C129.63 192.5 134.76 189.22 135.82 185.67C136.59 183.07 134.12 182.86 132.98 181.67C131.31 179.98 130.34 181.44 129.45 182.67C128.08 184.52 127.3 186.53 124.2 184.18C121.1 181.83 120.05 180.03 123.26 177.02C126.26 174.24 127.6 168.41 131.37 168.39C134.56 168.39 137.83 172.55 140.97 174.99C149.23 181.44 149.22 181.48 143.32 190.53C142.331 192.068 141.249 193.544 140.08 194.95C133.98 202.26 127.2 204.36 119.31 201.47C109.73 198 103 189.3 103.24 178.83Z" fill="black"/>
<path d="M275.6 728.69C274.71 728.69 274.54 728.76 274.38 728.69C265.95 727.69 263.04 722.43 262.86 714.46C262.8 712.22 263.69 708.04 260.37 707.69C257.05 707.34 257.91 711.69 256.42 713.69C256.199 714.137 256.038 714.611 255.94 715.1C253.94 720.26 248.83 721.1 244.78 717.04C243.6 715.86 244.38 714.9 244.78 713.91C249.047 703.09 253.343 692.283 257.67 681.49C258.2 680.16 258.45 678.58 260.74 679.64C266 682.09 271.74 683.51 276.74 686.64C280.62 689.07 283.47 692.32 282.98 697.19C282.46 702.35 279.98 706.55 274.66 707.84C271.33 708.64 271.94 710.55 272.36 712.66C273.36 718 274.49 723.3 275.6 728.69ZM266.88 700.94C269.99 700.55 271.8 698.85 271.88 696.1C271.917 695.429 271.808 694.759 271.56 694.135C271.312 693.51 270.932 692.948 270.445 692.485C269.958 692.023 269.376 691.672 268.739 691.457C268.103 691.242 267.428 691.168 266.76 691.24C263.76 691.69 263.5 695.48 262.99 698.01C262.4 701 265.65 700 266.88 700.94Z" fill="black"/>
<path d="M349.12 74.35C345.69 76.12 342.28 75.83 339.12 76.74C337.54 77.19 336.74 75.95 335.88 74.93C333.4 72.02 330.93 69.11 328.43 66.22C327.5 65.14 326.75 63.37 324.9 64.22C323.05 65.07 324.1 66.9 324.22 68.22C324.369 70.7073 324.785 73.1714 325.46 75.57C326.34 78.29 325.2 79.2 322.86 79.57C321.21 79.7394 319.573 80.0167 317.96 80.4C315.96 80.98 315.33 80.18 315.01 78.34C313.003 66.6267 310.907 54.8933 308.72 43.14C308.4 41.39 309.07 40.64 310.64 40.41C316.38 39.57 321.99 37.9 327.87 37.99C332.47 38.06 336.42 39.3 338.62 43.74C340.82 48.18 340.76 52.89 337.33 56.74C335.33 59.05 335.61 60.31 337.67 62.3C341.59 66.1 345.2 70.19 349.12 74.35ZM324.35 46.35C322.88 46.93 320.14 46.35 320.99 49.35C321.67 51.72 320.14 55.68 324.18 55.93C326.98 56.11 329.24 54.24 329.24 50.93C329.24 47.62 327.22 46.52 324.35 46.3V46.35Z" fill="black"/>
<path d="M668.72 231.36C667.95 231.45 665.72 233.11 664.26 231.26C662.46 228.93 661.35 226.07 660.02 223.39C659.14 221.59 660.74 221.39 661.77 221.26C674.4 219.26 687.04 217.35 699.68 215.4C700.25 215.259 700.851 215.334 701.368 215.611C701.886 215.889 702.282 216.348 702.48 216.9C702.68 217.35 702.96 217.78 703.2 218.21C708.58 227.89 708.57 227.88 700.75 235.67C693.91 242.47 687.06 249.26 680.33 256.17C678.33 258.17 677.33 258.11 676.13 255.51C674.13 251.43 670.56 247.51 676.9 243.96C677.128 243.855 677.33 243.702 677.493 243.511C677.656 243.32 677.775 243.096 677.843 242.854C677.91 242.613 677.924 242.359 677.884 242.112C677.844 241.864 677.75 241.628 677.61 241.42C675.99 238.32 674.49 235.18 672.91 232.07C672.23 230.74 671 231 668.72 231.36ZM697.37 226.08L696.93 225.36C692.59 226.27 688.25 227.15 683.93 228.12C683.04 228.32 681.61 228.64 682.05 229.87C682.753 231.884 683.729 233.791 684.95 235.54C685.76 236.68 686.7 235.45 687.39 234.86C690.74 232 694.05 229 697.37 226.08Z" fill="black"/>
<path d="M577.22 133.26C589.12 126.13 600.4 119.42 611.62 112.62C613.32 111.62 614.49 111.76 616.07 112.92C625.48 119.77 625.53 119.74 621.07 130.44C617.46 139.02 613.73 147.56 610.22 156.18C608.98 159.24 607.97 160.66 604.93 157.66C601.89 154.66 597.61 152.43 601.93 147.37C603.07 146.05 602.09 144.91 601.02 143.97C598.78 141.97 596.48 140.07 594.29 138.03C593.05 136.86 591.83 136.92 590.81 138.03C587.15 141.95 584.28 140.12 581.41 136.97C580.079 135.661 578.681 134.422 577.22 133.26ZM614.15 123.07L613.59 122.41C609.91 124.93 606.22 127.41 602.59 129.99C601.87 130.49 600.41 130.99 601.35 132.13C602.78 133.75 604.402 135.191 606.18 136.42C607.41 137.29 607.85 135.89 608.25 135.09C610.23 131.1 612.18 127.08 614.15 123.07Z" fill="black"/>
<path d="M92.87 591.28C105.94 586.56 118.59 582.01 131.21 577.39C133.07 576.71 133.95 577.75 134.99 578.89C142.83 587.44 142.81 587.41 136.31 596.97C130.98 604.81 125.65 612.65 120.52 620.62C118.71 623.43 117.64 623.54 115.62 620.81C112.95 617.2 109.31 614.02 114.53 609.7C115.94 608.53 115.01 607.34 114.13 606.25C112.815 604.747 111.599 603.161 110.49 601.5C108.69 598.5 106.65 597.07 103.32 599.34C101.08 600.87 99.38 600.19 97.92 598C96.46 595.81 94.77 593.79 92.87 591.28ZM131.02 588.38L130.3 587.69L118.49 592.85C117.63 593.23 116.09 593.58 116.7 594.66C117.834 596.679 119.282 598.506 120.99 600.07C121.88 600.87 122.61 599.33 123.17 598.62C125.82 595.23 128.41 591.8 131 588.38H131.02Z" fill="black"/>
<path d="M364.29 745C364.16 745.36 364.04 746.4 363.72 746.46C360.58 747.13 357.54 745.93 354.44 745.68C352.55 745.53 352.35 743.58 352.44 742.14C352.74 737.96 350.27 737.08 346.87 737.02C345.706 737.075 344.541 736.961 343.41 736.68C339.94 735.53 337.88 736.42 336.75 740.12C335.86 742.99 326.55 744.06 324.64 741.69C323.88 740.74 324.71 739.83 325.1 738.98C330.28 727.84 335.52 716.73 340.64 705.56C341.55 703.56 342.77 702.75 344.88 703.25C345.042 703.283 345.205 703.306 345.37 703.32C356.23 704.59 356.23 704.59 358.37 715.4C360.17 724.347 361.967 733.297 363.76 742.25C364 743 364.1 743.84 364.29 745ZM348.65 712.86H347.65C346.03 716.97 344.46 721.1 342.76 725.17C341.86 727.32 342.97 728.08 344.76 727.89C346.66 727.68 350.06 730.13 350.19 726.38C350.32 721.84 349.21 717.32 348.65 712.82V712.86Z" fill="black"/>
<path d="M58.58 513.31C56.81 513.31 54.46 514.98 53.21 512.9C51.6744 510.139 50.4727 507.205 49.63 504.16C49.21 502.79 50.8 502.88 51.7 502.82C64.3 501.91 76.92 501.07 89.52 500.14C91.36 500 92.11 500.87 92.85 502.37C98.18 513.04 98.19 513.01 89.15 520.49C81.85 526.49 74.5 532.49 67.37 538.78C64.68 541.14 63.84 540.39 62.7 537.5C61.04 533.27 58.57 529.18 64.8 526.5C65.9 526.03 65.98 525.01 65.57 523.95C64.3633 520.863 63.1567 517.767 61.95 514.66C61.34 513.15 60.12 513 58.58 513.31ZM86.85 510.47C84.46 509.57 83.04 510.2 81.59 510.4C80.14 510.6 78.65 510.8 77.17 510.94C69.93 511.65 69.91 511.68 73.05 518.43C73.3168 518.918 73.6141 519.389 73.94 519.84L86.85 510.47Z" fill="black"/>
<path d="M741.58 330.22C741.92 331.41 740.4 332.05 739.1 332.76C728.42 338.56 717.71 344.31 707.1 350.16C704.91 351.36 703.79 351.16 703.4 348.51C702.74 344.09 700.24 339.15 707.4 337.51C708.99 337.16 708.87 335.6 708.56 334.17C708.02 331.901 707.63 329.6 707.39 327.28C707.17 324.41 705.8 323.2 702.95 323.1C701.43 323.05 699.12 323.73 698.63 321.62C697.93 318.62 696.79 315.5 697.28 312.31C697.49 310.96 698.85 311.49 699.79 311.61C711.84 313.21 723.88 314.83 735.93 316.39C738.18 316.68 739.52 317.62 739.84 320.02C740.25 323.18 740.89 326.28 741.58 330.22ZM732 326.15L731.78 325.28C727.53 324.99 723.28 324.69 719.03 324.42C717.94 324.36 716.3 323.88 716.34 325.57C716.399 327.699 716.794 329.805 717.51 331.81C717.94 333.03 719.24 332.2 720.06 331.81C724 330 728 328.05 732 326.15Z" fill="black"/>
<path d="M510.07 685.21C509.64 683.66 510.8 682.39 513.14 681.31C522.92 676.79 522.91 676.69 530.14 684.51C536.66 691.61 543.05 698.83 549.62 705.89C551.5 707.89 552.26 709.2 548.91 710.22C547.328 710.711 545.808 711.382 544.38 712.22C542.28 713.45 540.62 713.33 539.38 711.1C537.38 707.48 534.79 707.47 531.62 709.47C530.483 710.159 529.258 710.694 527.98 711.06C524.98 711.99 523.53 713.55 524.61 716.91C525.06 718.3 526.13 720.26 523.9 721.27C521.088 722.643 518.176 723.803 515.19 724.74C514.08 725.05 514.3 723.24 514.19 722.37C512.81 710.35 511.5 698.29 510.07 685.21ZM521.07 688.28L519.98 688.71C520.66 692.62 521.55 696.5 521.98 700.43C522.29 703.43 523.3 703.48 525.8 702.53C529.48 701.13 531.2 699.77 527.66 696.23C525.19 693.81 523.21 690.94 521 688.28H521.07Z" fill="black"/>
<path d="M397.17 72.67C402.39 59.79 407.34 47.67 412.17 35.49C412.4 34.715 412.891 34.0434 413.56 33.5895C414.229 33.1356 415.035 32.9273 415.84 33C426.96 32.5 427.56 32.89 430.35 43.9C432.67 53.08 434.9 62.29 437.35 71.42C438.15 74.42 438.11 75.63 434.42 75.3C429.94 74.9 425.1 75.63 425.32 68.81C425.37 67.29 424.22 66.98 422.96 66.88C420.14 66.65 417.32 66.41 414.51 66.1C412.62 65.9 411.14 66.34 410.84 68.44C410.18 73.04 407.28 73.77 403.32 73.08C401.279 72.8316 399.226 72.6947 397.17 72.67ZM419.81 41.48C418.26 46.12 416.9 50.2 415.53 54.27C415.22 55.22 414.69 56.64 415.72 56.93C417.797 57.4463 419.93 57.7082 422.07 57.71C423.07 57.71 423.34 56.71 423.12 55.86C422 51.28 422 46.4 419.81 41.48Z" fill="black"/>
<path d="M80.72 313.42C80.95 314.42 81.01 314.54 81.02 314.7C81.7 324.28 75.64 327.39 67.66 328.93C65.93 329.27 62.76 328.69 63.09 332.04C63.38 335.04 66.19 334.49 68.17 334.99C68.97 335.2 69.82 335.2 70.63 335.35C77.11 336.54 78.22 338.96 75.63 345.35C74.78 347.43 73.45 347.04 72.04 346.8C60.74 344.85 49.46 342.8 38.16 340.89C35.82 340.49 35.26 339.47 35.64 337.13C36.86 329.54 36.76 329.54 44.64 330.91C47.24 331.37 49.86 331.71 53.31 332.24C50.64 328.24 47.47 325.69 44.62 322.9C38.29 316.72 38.09 315.9 42.03 306.07C46.15 310.44 50.13 314.42 53.82 318.66C56.06 321.22 58.23 321.43 61.28 320.26C67.62 317.78 74.08 315.72 80.72 313.42Z" fill="black"/>
<path d="M234.05 666.36C234.62 666.62 235.24 666.86 235.83 667.16C241.17 669.87 246.43 672.72 251.83 675.26C254.83 676.66 254.13 678.38 252.83 680.38C251.71 682.15 251.42 685.32 247.94 683.18C246.11 682.05 244.03 681.32 242.19 680.18C239.91 678.78 238.54 678.96 237.19 681.58C235.68 684.49 237.14 685.36 239.36 686.24C240.427 686.712 241.468 687.24 242.48 687.82C246.48 689.89 246.77 693.4 243.48 696.6C242.48 697.6 241.67 697.1 240.84 696.72C239.153 696.014 237.524 695.175 235.97 694.21C233.14 692.34 231.58 692.8 229.86 695.97C227.95 699.51 229.97 700.28 232.39 701.34C233.45 701.8 234.46 702.34 235.5 702.93C239.96 705.27 240.34 708.08 236.84 711.88C235.95 712.88 235.32 712.73 234.3 712.2C228.55 709.2 222.76 706.3 216.97 703.38C215.61 702.69 214.84 701.83 215.66 700.23C221.193 689.43 226.713 678.63 232.22 667.83C232.63 667.09 233 666.37 234.05 666.36Z" fill="black"/>
<path d="M302.21 65.61C302.43 67.05 301.73 67.7 300.37 68.03C298.6 68.47 296.91 69.32 295.12 69.6C292.07 70.09 290.82 71.04 291.96 74.53C292.96 77.64 294.14 78.74 297.22 77.27C298.41 76.71 299.83 76.65 301.02 76.09C304.89 74.3 306.61 75.54 307.44 79.67C307.97 82.26 308.18 83.49 305.11 84.2C299.61 85.48 294.22 87.2 288.8 88.87C286.48 89.57 285.03 89.73 284.2 86.59C281.32 75.65 278.13 64.79 274.85 53.97C274.08 51.39 274.59 50.43 277.16 49.78C282.8 48.34 288.43 46.78 293.93 44.89C297.13 43.79 297.78 45.46 298.17 47.8C298.5 49.8 300.83 52.34 296.64 53.15C294.53 53.56 292.52 54.45 290.42 54.96C287.99 55.55 286.72 56.32 287.61 59.39C288.61 62.69 290.2 62.17 292.42 61.28C293.364 60.9454 294.325 60.6616 295.3 60.43C300.35 59 302.28 60.47 302.21 65.61Z" fill="black"/>
<path d="M676.42 527.35C680.47 527.45 682.87 531.26 681.04 534.82C680.35 536.15 679.71 537.51 678.96 538.82C677.77 540.91 676.67 542.52 679.96 544.22C683.47 546.04 683.88 543.58 684.96 541.65C685.38 540.93 685.77 540.19 686.15 539.45C688.47 535.01 691.52 534.61 695.06 538.12C696.06 539.12 695.71 539.83 695.25 540.73C694.513 542.405 693.665 544.029 692.71 545.59C690.82 548.33 690.97 549.91 694.27 551.67C697.57 553.43 698.62 552.07 699.68 549.43C700.11 548.36 700.95 547.43 701.28 546.33C702.72 541.49 705.45 541.82 708.98 544.11C710.55 545.11 711.6 545.8 710.42 547.93C707.36 553.47 704.44 559.08 701.66 564.76C700.66 566.7 699.66 566.55 698.13 565.76C687.65 560.31 677.13 554.84 666.68 549.43C665 548.56 664.59 547.55 665.48 545.87C668.48 540.14 671.48 534.38 674.48 528.64C674.89 527.93 675.23 527.09 676.42 527.35Z" fill="black"/>
<path d="M720.28 473.36C719.94 474.984 719.496 476.584 718.95 478.15C717.74 481.09 717.9 482.8 721.52 483.95C725.52 485.23 725.98 482.95 726.61 480.25C726.91 478.96 727.33 477.69 727.71 476.42C727.982 475.572 728.466 474.808 729.118 474.201C729.77 473.594 730.566 473.165 731.431 472.954C732.297 472.743 733.201 472.758 734.059 472.997C734.917 473.236 735.699 473.692 736.33 474.32C737.44 475.32 736.85 476.43 736.53 477.53C734.88 483.27 733.13 488.99 731.64 494.77C731.02 497.19 729.86 497.49 727.72 496.86C716.72 493.64 705.72 490.44 694.72 487.39C692.37 486.73 691.85 485.6 692.48 483.44C694.16 477.71 695.84 471.98 697.4 466.21C698.29 462.9 700.5 463.91 702.51 464.52C704.52 465.13 707.11 465.25 705.84 468.63C705.09 470.63 704.78 472.83 704 474.83C703 477.33 703.34 478.54 706.25 479.48C709.61 480.56 709.88 478.74 710.41 476.48C710.84 474.7 711.57 473 711.94 471.22C712.48 468.59 714.14 468.5 715.94 469.47C717.74 470.44 721.27 469.37 720.28 473.36Z" fill="black"/>
<path d="M124 215.38C121.81 219.25 119.64 222.99 117.54 226.77C112.66 235.54 112.68 235.54 104.21 230.7C96.99 226.58 89.93 222.15 82.47 218.49C77.64 216.12 77.22 213.93 80.24 209.72C82.9273 205.717 85.3235 201.526 87.41 197.18C89.41 193.42 91.33 195.84 93.41 196.8C95.86 197.9 96.75 199.18 94.91 201.65C93.73 203.24 93.05 205.19 91.91 206.84C90.5 208.91 89.99 210.32 92.81 211.91C95.63 213.5 96.62 212.33 97.66 210.09C98.14 209.04 98.81 208.09 99.4 207.09C101.59 203.32 106.06 203.17 108.51 206.7C109.33 207.87 108.51 208.6 108.09 209.38C107.294 211.028 106.368 212.61 105.32 214.11C103.51 216.66 103.69 218.22 106.71 219.92C109.73 221.62 111.17 220.73 112.39 217.98C112.994 216.785 113.661 215.623 114.39 214.5C116.56 210.75 121.18 210.56 123.55 214.15C123.751 214.539 123.903 214.953 124 215.38Z" fill="black"/>
<path d="M468.73 73.37C469.95 74.09 473.2 71.37 472.96 74.87C472.77 77.58 473.71 82.05 468.36 82.09C464.027 82.2824 459.702 81.5706 455.66 80C449.04 77.18 445.49 72.22 445.25 65C444.84 52.42 450.88 42.77 460.67 40.57C467.23 39.11 473.11 41.2 478.79 44.33C481.18 45.64 481.5 47.16 479.64 48.9C478.05 50.39 478.19 54.54 473.92 52.17C464.32 46.84 459.4 49.08 456.92 59.4C454.65 69 458.55 73.73 468.73 73.37Z" fill="black"/>
<path d="M614.88 654.16C621.48 661.02 621.53 661.65 615.37 667.5C609.89 672.7 603.49 676.26 595.93 673.32C586.93 669.81 581.44 662.78 580.03 653.13C578.82 644.85 583.22 639.13 589.73 634.83C591.222 633.768 592.859 632.927 594.59 632.33C596.45 631.77 599.05 629.11 600.07 633.28C600.77 636.15 603.55 639.49 597.74 640.86C593.59 641.86 590.08 644.37 590.19 649.52C590.3 654.67 595.81 661.99 600.82 663.59C605.47 665.06 608.41 662.26 611.14 659.23C612.471 657.604 613.719 655.912 614.88 654.16Z" fill="black"/>
<path d="M79.28 465.76C81.09 465.12 81.22 466.76 81.57 467.97C83.31 473.86 84.86 479.8 86.74 485.64C87.79 488.92 85.4 488.86 83.62 489.31C81.84 489.76 79.41 491.68 78.38 488.15C77.82 486.24 77.18 484.35 76.72 482.42C76.07 479.68 75.72 477.42 71.61 478.78C67.99 479.96 67.61 481.52 69.02 484.5C69.3592 485.437 69.6463 486.392 69.88 487.36C70.88 490.07 71.34 492.07 67.34 493.11C63.84 494.01 62.34 493.69 61.4 490.01C59.4 482.57 59.21 482.62 51.8 484.7C50.9793 484.832 50.1726 485.04 49.39 485.32C45.31 487.32 44.16 485.26 43.03 481.57C41.86 477.72 42.28 476.04 46.47 474.96C56.59 472.37 66.58 469.26 76.62 466.38C77.42 466.15 78.24 466 79.28 465.76Z" fill="black"/>
<path d="M649.76 208.72C647.2 206.89 645.9 204.14 644.24 201.72C642.58 199.3 645.24 198.95 646.34 198.17C655.34 191.63 664.51 185.26 673.55 178.73C675.55 177.31 676.68 176.94 678.25 179.35C681.42 184.22 684.79 189 688.4 193.55C691.14 197.03 687.88 197.64 686.25 199.13C684.4 200.81 682.74 201.55 681.25 198.61C680.43 197 678.89 195.74 678.12 194.12C676.12 189.86 673.88 191.35 671.23 193.44C669.61 194.73 669.08 195.75 670.54 197.44C671.54 198.58 672.16 200.01 673.19 201.07C675.93 203.89 675.6 205.82 672.19 207.98C669.76 209.52 668.56 209.84 666.72 207.19C661.78 200.11 661.65 200.19 654.72 205.19L649.76 208.72Z" fill="black"/>
<path d="M167.2 177.23C166.89 182.64 163.94 186.47 159.92 189.3C156.86 191.45 155.92 187.5 154.05 186.3C151.93 184.93 153.58 183.97 154.73 183C158.43 179.88 157.21 176.91 154.31 174.14C146.38 166.55 138.67 158.69 130.31 151.57C126.03 147.91 127.62 146.16 130.42 142.79C133.99 138.49 135.78 141.39 138.13 143.62C145.61 150.727 153.09 157.83 160.57 164.93C164.16 168.32 166.94 172.17 167.2 177.23Z" fill="black"/>
<path d="M225.94 671.84C224.719 671.266 223.559 670.569 222.48 669.76C218.57 666.02 216.42 667.59 214.07 671.76C210.48 678.12 206.07 684 202.34 690.3C199.34 695.39 197.2 690.86 194.86 689.89C192.52 688.92 190.64 687.72 193.01 684.41C197.57 678.08 201.37 671.2 205.87 664.82C208.21 661.5 207.8 659.57 204.22 658.08C200.37 656.48 199.96 654.41 202.56 651.03C204.26 648.81 205.17 647.95 207.87 649.82C214.42 654.37 221.27 658.48 227.96 662.82C228.96 663.45 230.82 663.88 229.82 665.7C228.67 667.82 227.25 669.79 225.94 671.84Z" fill="black"/>
<path d="M238.66 75C236.44 73.61 236.21 71 235.04 68.91C233.87 66.82 235.78 66.7 236.79 66.22C244.33 62.7 251.97 59.41 259.43 55.73C262.22 54.36 263.14 55.73 263.76 57.79C264.34 59.68 267.17 61.67 263.62 63.65C261.53 64.81 257.95 64.78 257.69 67.38C257.47 69.55 259.33 71.96 260.36 74.22C263.12 80.22 265.85 86.35 268.75 92.34C269.91 94.71 269.81 95.96 267.1 97.21C260.37 100.31 260.43 100.48 257.3 93.68C254.52 87.63 251.51 81.68 249.11 75.48C247.6 71.59 245.75 71.17 242.54 73.23C241.289 73.9082 239.992 74.4996 238.66 75Z" fill="black"/>
<path d="M378 731.06C378 727.4 377.72 723.71 378.08 720.06C378.48 716.01 376.91 714.54 373.08 715.01C369.76 715.43 367.95 714.75 368.08 710.58C368.19 706.64 369.56 705.89 373.08 706.11C380.55 706.58 388.08 706.82 395.54 706.78C399.05 706.78 399.18 708.47 399.07 711.12C398.96 713.77 399 716.45 395.18 715.63C389.58 714.43 388.49 717.25 388.59 722.08C388.73 729.23 388.14 736.4 388.34 743.54C388.46 747.63 386.1 747.48 383.58 747.06C381.06 746.64 377.06 749.06 377.35 743.51C377.56 739.36 377.35 735.19 377.35 731.03L378 731.06Z" fill="black"/>
<path d="M557.53 705.31C556.2 705.31 555.96 704.16 555.53 703.31C549.7 693.23 543.95 683.11 538.06 673.07C536.92 671.13 537.43 670.25 539.11 669.07C545.55 664.58 545.67 664.55 549.62 671.34C553.21 677.53 556.84 683.69 560.32 689.94C561.57 692.19 562.84 692.69 565.03 691.17C566.93 689.85 569.03 688.82 571.03 687.64C575.73 684.89 576.76 685.31 578.85 690.47C579.47 691.97 579.37 692.93 577.92 693.76C571.56 697.38 565.23 701.05 558.92 704.69C558.472 704.929 558.007 705.136 557.53 705.31Z" fill="black"/>
<path d="M636.05 589.41C637.05 590.14 638.05 590.78 638.92 591.5C645.45 596.66 652.03 601.76 658.44 607.05C660.29 608.57 661.36 608.6 662.77 606.65C664.77 603.95 667.05 601.53 668.94 598.8C671.12 595.65 672.59 598.17 674.08 599.32C675.57 600.47 678.25 601.32 675.82 604.22C671.25 609.72 666.82 615.38 662.52 621.07C661.25 622.73 660.39 622.43 658.98 621.3C649.89 614.02 640.79 606.76 631.57 599.63C629.46 598 629.37 596.76 631.15 594.97C632.93 593.18 633.77 590.8 636.05 589.41Z" fill="black"/>
<path d="M108.39 242C107.96 243 107.65 243.75 107.31 244.5C104.64 250.41 101.81 256.25 99.37 262.25C98.24 265 97 265.08 94.54 264C84.43 259.33 74.29 254.74 64.07 250.32C61.44 249.19 61.07 248.09 62.16 245.49C65 238.83 64.86 238.79 71.43 241.76C78 244.73 84.53 247.47 90.98 250.55C93.55 251.77 94.87 251.43 95.89 248.73C97 245.73 98.46 242.97 99.76 240.09C100.34 238.82 100.99 237.56 102.7 238.53C104.62 239.56 107.16 239.74 108.39 242Z" fill="black"/>
<path d="M630.75 183.4C629.24 182.05 628.61 181.55 628.05 180.98C623.27 176.1 618.59 171.14 613.72 166.36C611.78 164.46 612.1 163.26 613.91 161.52C621.97 153.81 629.98 146.06 637.84 138.16C639.98 136.01 641.48 135.63 643.32 138.24C644 139.19 644.815 140.036 645.74 140.75C647.93 142.47 647.93 143.8 645.74 145.75C639.63 151.4 633.84 157.39 627.74 163.06C625.67 165 625.49 166.26 627.74 168.16C629.827 170.066 631.801 172.093 633.65 174.23C634.56 175.23 636.49 175.98 635.15 177.84C633.81 179.7 632.27 181.5 630.75 183.4Z" fill="black"/>
<path d="M681.26 595.24C680.71 594.91 679.99 594.51 679.26 594.06C669.75 588 660.26 581.85 650.68 575.93C648.21 574.4 648.11 573.23 649.63 570.93C653.63 564.85 653.47 564.77 659.37 568.54C665.27 572.31 671.23 575.89 676.93 579.89C679.93 581.98 681.48 581.5 682.93 578.42C683.892 576.693 684.953 575.023 686.11 573.42C688.99 568.94 691.36 568.79 695.05 572.67C695.245 572.812 695.409 572.993 695.531 573.201C695.652 573.41 695.729 573.641 695.756 573.881C695.783 574.121 695.761 574.364 695.689 574.594C695.617 574.825 695.498 575.038 695.34 575.22C691.34 581.49 687.34 587.79 683.28 594.08C682.9 594.69 682.49 595.42 681.26 595.24Z" fill="black"/>
<path d="M738.17 407.83C738.087 411.019 736.771 414.052 734.497 416.29C732.223 418.528 729.17 419.797 725.98 419.83C722.808 419.752 719.791 418.439 717.571 416.172C715.352 413.905 714.103 410.862 714.091 407.689C714.08 404.516 715.306 401.463 717.509 399.18C719.712 396.896 722.719 395.562 725.89 395.46C727.511 395.457 729.116 395.776 730.613 396.398C732.11 397.02 733.469 397.932 734.611 399.083C735.753 400.233 736.656 401.598 737.267 403.1C737.878 404.601 738.185 406.209 738.17 407.83Z" fill="black"/>
<path d="M64.4 407.31C64.4565 408.932 64.1854 410.548 63.6029 412.063C63.0204 413.577 62.1384 414.959 61.0098 416.125C59.8812 417.291 58.5291 418.217 57.0343 418.849C55.5395 419.48 53.9327 419.804 52.31 419.8C49.1277 419.728 46.0978 418.422 43.8592 416.16C41.6206 413.897 40.3481 410.853 40.31 407.67C40.2858 404.485 41.5205 401.419 43.7454 399.14C45.9703 396.861 49.0053 395.553 52.19 395.5C53.7707 395.46 55.3436 395.735 56.8168 396.31C58.29 396.884 59.6341 397.746 60.7706 398.846C61.9072 399.945 62.8135 401.259 63.4366 402.713C64.0597 404.166 64.3872 405.729 64.4 407.31Z" fill="black"/>
<path d="M502.23 51.6L501.3 54.36C497.8 64.74 494.21 75.09 490.86 85.51C489.94 88.38 488.81 89 485.92 87.98C479.18 85.6 479.13 85.76 481.42 78.98C484.69 69.39 487.94 59.8 491.24 50.23C491.73 48.8 491.86 46.58 494.42 47.81C496.98 49.04 500.54 48.72 502.23 51.6Z" fill="black"/>
<path d="M204.55 131.49C202.74 134.3 199.8 135.64 197.25 137.35C195.32 138.65 194.79 136.35 194.03 135.35C187.48 126.35 181.16 117.19 174.45 108.35C171.15 103.99 175.37 103.47 177.26 101.87C179.15 100.27 180.89 97.99 183.45 101.8C189.66 111.02 196.33 119.93 202.81 128.97C203.38 129.71 203.91 130.54 204.55 131.49Z" fill="black"/>
<path d="M402.37 712.34C402.12 706.8 405.92 704.17 411.43 705.95C413.18 706.51 413.03 707.84 413.13 709.13C413.97 720.4 414.65 731.68 415.72 742.93C416.09 746.83 413.56 746.67 411.43 746.55C409.14 746.42 405.35 749.25 404.92 744.14C404 733.54 403.21 722.94 402.37 712.34Z" fill="black"/>
<path d="M168 616.74C167 617.9 166.46 618.74 165.79 619.39C158.14 627.48 150.33 635.39 142.89 643.68C139.04 647.96 137.73 643.68 135.62 642.07C133.51 640.46 131.71 639.07 134.81 636.01C142.64 628.35 149.98 620.2 157.59 612.31C158.59 611.31 159.44 608.93 161.5 610.61C163.72 612.46 165.73 614.62 168 616.74Z" fill="black"/>
<path d="M149.58 124.41C150.32 125.12 151.02 125.73 151.66 126.41C159.48 134.59 167.18 142.88 175.14 150.92C179.57 155.39 174.01 156.21 172.65 158.43C171.29 160.65 169.6 161.2 167.29 158.66C160.47 151.14 153.29 143.95 146.29 136.59C141.02 131.06 140.78 132.83 146.69 126.93C147.53 126.1 148.45 125.4 149.58 124.41Z" fill="black"/>
<path d="M534.5 159C518.85 175.15 506.68 192.81 488.18 204C485.68 205.51 486.51 207.14 486.98 209.09C487.53 211.39 488.21 213.86 484.48 214.16C481.65 214.39 481.92 216.94 481.48 218.7C479.48 226.593 477.563 234.513 475.73 242.46C475.06 245.46 473.73 246.72 470.46 247.18C420.89 254.18 373 267 328.19 289.81C317.02 295.402 306.224 301.712 295.87 308.7C294.6 309.56 291.87 309.92 293 312.32C294.4 315.22 296.53 313.67 298.41 312.53C320.512 299.202 343.678 287.723 367.67 278.21C396.82 266.6 427.18 259.21 457.67 252.14C467.56 249.86 477.53 247.83 487.23 244.95C492.32 243.44 492.78 245.75 493.98 249.52C495.45 254.15 493.41 255.1 489.63 255.99C466 261.54 442.32 266.93 418.82 272.99C378.93 283.32 341.49 299.63 306.06 320.62C304.27 321.69 301.71 322.46 304.61 325.18C306.09 326.58 304.5 327.57 303.61 328.45C299.4 332.72 295.03 336.84 290.95 341.23C289 343.34 286.7 343.23 284.52 342.78C275.76 341.07 268.95 344.25 262.31 349.83C253.14 357.54 243.24 364.37 233.73 371.69C231.39 373.49 229.95 374.05 227.94 371.02C224.02 365.15 223.86 365.37 229.64 361.02C238.03 354.77 246.33 348.4 255.23 341.66C244.611 337.01 234.422 331.435 224.78 325C219.13 326.46 217.51 321.87 215.06 318.52C214.24 317.4 213.06 317.52 211.9 317.64C196.39 318.79 180.9 317.27 165.44 316.76C161.49 316.64 160.34 317.63 160.44 321.66C160.88 347.99 161.29 374.32 161.26 400.66C161.26 429.02 158.82 457.16 151.78 485.49C149.52 481.72 149.98 478.01 149.55 474.61C146.192 448.316 145.118 421.78 146.34 395.3C147.12 379.3 150.61 363.63 151.68 347.67C152.63 335.87 152.58 324.011 151.53 312.22C151.06 307.66 152.17 304.61 155.59 301.41C200.257 259.63 244.8 217.743 289.22 175.75C299.27 166.25 311.57 164.61 324.38 164.29C355.7 163.51 387.02 162.92 418.33 162.15C455.15 161.24 491.93 159.15 528.77 159.02L534.5 159ZM229.22 266.09C244.7 246.17 261.58 228.93 274.9 208.86C246.76 232.78 221.3 259.28 197.63 287.64C224.53 279.98 250.46 269.99 276.14 259.21C260.63 259.93 245.71 264.26 229.22 266.09Z" fill="black"/>
<path d="M219.15 466.73C218.629 466.103 218.161 465.434 217.75 464.73C217.298 463.927 217.123 462.997 217.251 462.085C217.379 461.172 217.804 460.327 218.46 459.68C220.46 457.41 220.87 461.46 222.78 460.34C220.61 456.54 222.86 453.64 225.1 450.84C228.64 446.43 230.95 441.05 235.95 437.76C238.7 435.96 238.21 432.02 240.52 429.61C244.83 425.12 249.45 420.7 252.75 415.5C257.376 408.241 262.737 401.479 268.75 395.32C272.54 391.43 274.54 385.41 281.35 385.32C281.508 385.283 281.657 385.215 281.788 385.119C281.919 385.022 282.028 384.9 282.11 384.76C288.36 374.91 289.44 373.93 299.42 369.16C301.28 368.26 302.29 366.59 303.59 365.08C306.7 361.5 310.09 357.98 315.47 358.08C315.94 358.08 316.62 358.31 316.85 358.08C324.85 350.28 330.25 347.38 340.94 343.24C344.61 341.82 347.74 338.86 351.45 337.08C357.946 333.996 364.798 331.726 371.85 330.32C373.74 329.92 375.2 324.88 377.68 329.17C378.99 331.42 377.04 333.63 376.68 336.08C379.97 335.01 382.76 335.38 383.78 339.13C386.1 347.66 390.06 355.65 393.93 363.4C397.65 370.85 399.82 378.9 404.06 386.11C406.69 390.58 408.16 395.74 410.06 400.61C410.56 401.88 411.06 403.61 412.58 403.16C414.71 402.54 413.58 400.78 413.09 399.42C410.3 391.5 407.68 383.51 404.66 375.66C400.053 363.72 395.3 351.833 390.4 340C388.2 334.64 387.99 328.53 384.11 323.8C383.11 322.63 383.8 321.5 385.11 321.09C387.44 320.38 389.33 318.36 392.11 318.81C392.89 318.94 394.11 318.95 394.51 318.48C398.88 313.6 405.64 314.11 410.83 311.12C411.689 310.638 412.621 310.3 413.59 310.12C424.72 307.99 435.19 303.55 446.21 300.96C470.42 295.28 494.57 291.16 519.66 294.31C536.08 296.37 552.51 299.13 569.19 298.49C572 298.39 574.77 299.25 577.5 299.67C590.94 301.74 604.4 299.59 617.83 300.35C621.28 300.55 622.83 301.18 622.91 305.1C623.1 318.086 621.981 331.058 619.57 343.82C618.21 333.44 616.7 323.08 615.57 312.67C615.19 309.26 614.97 307.3 610.5 307.81C598.82 309.15 587.13 310.81 575.29 310.01C564.06 309.29 552.79 308.65 541.59 307.91C524.9 306.81 508.05 304.35 491.28 306.18C485.19 306.85 478.69 306.49 473.08 308.29C464.89 310.93 456.36 312.29 448.3 315.63C441.64 318.41 435.23 321.8 428.69 324.73C421.39 327.99 413.96 331.09 406.69 334.5C405.19 335.2 405.12 336.68 405.52 337.96C407.58 344.59 408.96 351.61 411.64 357.83C416.5 369.123 420.937 380.56 424.95 392.14C428.64 402.82 431.95 413.7 436.11 424.14C439.48 432.58 442.36 441.19 445.49 449.7C448.03 456.6 449.61 463.87 451.27 471.06C452.07 474.54 454.37 477.19 455.57 480.49C457.32 485.35 455.69 491.11 459.82 495.34C460.112 495.654 460.319 496.037 460.42 496.453C460.521 496.87 460.514 497.305 460.398 497.718C460.283 498.13 460.063 498.506 459.761 498.81C459.458 499.113 459.082 499.334 458.67 499.45C456.51 499.99 455.1 498.75 455.52 496.36C455.74 495.1 454.79 495.43 454.37 495.01C446.89 487.35 438.95 480.11 434.46 469.94C433.08 466.84 428.95 465.1 430.76 460.49C431.2 459.36 428.24 460.57 427.64 458.93C425.25 452.34 421.07 446.59 419.03 439.77C417.86 435.89 414.9 432.65 413.03 428.94C409.11 421.33 405.59 413.44 401.31 406.1C396.31 397.53 392.38 388.43 387.23 379.94C382.996 372.619 379.209 365.049 375.89 357.27C374.28 353.7 372.24 353.48 368.79 353.95C358.12 355.43 349.08 361.28 339.12 364.46C331.94 366.75 326.12 371.03 319.47 374.05C308.41 379.05 299.77 387.31 290.7 394.92C279.59 404.23 270.86 415.8 261.51 426.8C250.61 439.64 240.12 452.89 227.3 463.97C226.221 465.019 224.9 465.784 223.453 466.198C222.007 466.611 220.48 466.66 219.01 466.34C219.05 466.472 219.097 466.603 219.15 466.73Z" fill="#EF8127"/>
<path d="M374.22 385.3C367.85 387.3 362.72 388.3 358.16 390.48C352.66 393.14 347.65 396.81 342.44 400.06C331 407.19 321.27 416.4 311.21 425.26C301.81 433.53 292.79 442.26 284.13 451.16C276.87 458.62 269.47 465.81 260.88 471.36C255.26 475 250.09 479.11 244.73 483.03C242.784 484.477 240.425 485.259 238 485.26C243.06 480.02 247.81 475.05 252.63 470.15C258.57 464.15 264.45 458.03 270.57 452.15C286 437.51 300 421.3 317.8 409.32C319.52 408.16 320.17 405.02 323.35 407.07C324.27 407.67 324.07 406.46 323.78 405.94C322.5 403.71 324.31 402.72 325.68 402.11C333.78 398.48 339.53 391.17 348.13 388.11C350.38 387.31 352.91 385.43 355.13 383.84C359.32 380.84 363.56 379.77 368.21 383.04C369.52 383.92 371.22 384.19 374.22 385.3Z" fill="#EF8127"/>
<path d="M579.15 325.91C570.9 327.18 564.08 333.4 555.24 330.46C554.927 330.316 554.578 330.274 554.24 330.34C536.62 338.01 517.71 336.26 499.24 338.03C480.44 339.83 461.48 340.6 443.05 345.34C441.909 345.586 440.747 345.717 439.58 345.73C438.58 345.73 437.5 345.91 437.04 344.73C436.58 343.55 437.23 342.84 437.93 342.08C441.104 338.637 445.078 336.03 449.5 334.49C455.927 332.25 462.615 330.845 469.4 330.31C484.99 329 500.62 328.49 516.22 327.61C531 326.79 545.76 326.09 560.56 326.13C565.74 326.13 570.69 324.02 575.91 324.48C576.528 324.411 577.154 324.507 577.723 324.758C578.292 325.009 578.785 325.407 579.15 325.91Z" fill="#EF8127"/>
<path d="M578.81 345C575.9 349.41 572.12 348.73 569.51 349.14C559.91 350.64 550.81 355.33 540.77 353.97C536.98 353.46 533.65 355.39 530.03 355.9C518.97 357.46 507.74 356.9 496.78 358.19C481.89 360.01 466.78 360.79 452.17 364.84C448.17 365.95 443.85 366.03 438.62 366.72C441.81 362.07 445.73 360.01 449.45 358.4C456.4 355.4 463.75 353.27 470.93 350.8C474.67 349.51 478.54 351.36 482.33 350.3C485.04 349.55 487.97 348.3 490.57 348.68C500.75 350.25 510.78 347.68 520.87 348.2C532.35 348.8 543.62 346.2 555.07 346.3C563.006 346.539 570.948 346.104 578.81 345Z" fill="#EF8127"/>
<path d="M573.21 368.45C565.36 369.26 558.44 373.32 550.41 373.98C534.41 375.29 518.48 377.3 502.41 377.53C495.33 377.63 488.74 379.11 481.95 380.77C477 382 471.53 382 466.7 383.24C461.29 384.68 455.76 385.65 450.36 387.13C449.36 387.4 447.89 388.46 447.36 386.82C446.83 385.18 448.2 384.48 449.52 383.97C457.1 381 464 376.68 472 374.45C480.51 372.06 489.16 371.06 497.82 369.66C510.75 367.57 523.64 369.12 536.54 368.56C548.73 368 561 368.45 573.21 368.45Z" fill="#EF8127"/>
<path d="M319.58 504.53C318.02 504.47 316.58 503.79 318.37 501.96C323.49 496.72 327.37 490.35 333.66 486.11C336.11 484.46 337.46 481.01 339.82 478.74C343.88 474.84 347.26 470 351.82 466.91C358.62 462.34 364.17 456.35 371.5 452.17C378.83 447.99 385.41 442.1 393.42 438.7C394.19 438.38 394.94 438.01 395.72 437.7C396.5 437.39 397.51 437.28 398 438.08C398.82 439.45 397.41 439.93 396.65 440.16C393.37 441.16 391.65 444.59 387.79 445.16C386.02 445.42 385.33 449.34 383.1 451.23C372.01 460.6 361.56 470.7 350.8 480.44C344.52 486.14 338.63 492.59 330.5 496.26C327.74 497.51 325.96 500.95 323.03 502.72C322 503.37 321.48 504.82 319.58 504.53Z" fill="#EF8127"/>
<path d="M359.19 440.05C359.83 439.98 360.78 439.59 361.05 439.88C362.2 441.03 360.86 441.66 360.18 442.07C354.69 445.39 351.07 450.75 346.18 454.72C337.44 461.84 329.96 470.29 321.55 477.72C316.27 482.41 309.95 485.83 304.84 490.51C301.09 494.115 296.772 497.078 292.06 499.28C290.83 499.83 289.52 501.85 288.41 499.68C287.48 497.85 289.67 497.74 290.75 497.29C292.01 496.76 293.35 496.29 293.8 494.94C295.64 489.38 300.33 486.14 304.48 482.83C309.39 478.91 313.16 473.9 318.03 470.04C319.59 468.81 319.98 465.25 323.3 467.18C323.43 467.26 323.98 466.99 324 466.84C324.77 460.46 330.44 457.72 334.4 454.19C339.52 449.63 344.03 444.53 349.02 439.88C351.02 438.06 353.1 437.06 355.78 437.69L359.19 440.05Z" fill="#EF8127"/>
<path d="M311 448.57C309.77 447.33 310.13 446.14 311.24 445.11C322.68 434.54 332.74 422.38 346.05 413.95C351.05 410.78 356.59 408.42 361.95 405.82C364.05 404.82 366.12 405.37 368.29 406.98C363.62 410.64 359.37 414.59 354.53 417.6C349.4 420.79 345.72 425.45 341.34 429.36C335.67 434.42 329.85 439.29 324.09 444.25C323.6 444.67 322.88 444.9 322.55 445.4C317.55 453.06 318.74 452.15 310.55 448.72C310.713 448.723 310.872 448.67 311 448.57Z" fill="#EF8127"/>
<path d="M559.41 392C529.69 397 499.41 397.23 469.02 405.48C470.76 401.57 473.86 402.54 475.19 400.7C476.52 398.86 478.99 399.62 480.94 398.7C489.179 394.541 498.302 392.441 507.53 392.58C512.47 392.66 517.3 391.35 522.29 391.25C525.15 391.19 528.2 390.25 531.14 390.54C540.532 391.509 549.968 391.997 559.41 392Z" fill="#EF8127"/>
<path d="M237.78 526.3C234.32 526.3 227.87 519.97 227.91 516.65C227.96 516.035 228.063 515.426 228.22 514.83C221.64 515.55 222.62 508.13 218.52 505.83C214.42 503.53 212.52 498.83 209.44 495.38C206.52 492.1 206.6 487.47 203.44 484.38C202.02 482.99 204.26 481.73 204.92 480.6C205.97 478.81 206.7 480.49 207.44 481.29C213.28 487.6 219.1 493.84 223.93 501.1C227.93 507.2 233.38 512.43 237.46 518.63C238.94 520.87 241.19 522.74 238.6 525.54L237.78 526.3Z" fill="#EF8127"/>
<path d="M311 448.57C310.874 448.668 310.719 448.721 310.56 448.72C314.09 454.55 314.17 454.72 307.62 458.83C305.29 460.31 305.21 463.23 303.09 464.62C292.59 471.48 284.4 481.57 272.55 486.56C271.73 486.91 271.01 488.15 270.04 486.86C269.26 485.86 269.9 484.99 270.64 484.26C273.35 481.59 275.95 478.78 278.84 476.31C287.55 468.89 295.2 460.37 303.52 452.55C305.6 450.61 307.35 447.67 311 448.57Z" fill="#EF8127"/>
<path d="M359.19 440.05L355.8 437.73C354.12 436.79 354.25 435.29 355.68 434.73C364.73 431.06 372.5 424.45 382.49 422.95C382.61 422.95 382.76 423.11 383.55 423.6C374.58 428.21 368.82 436.84 359.19 440.05Z" fill="#EF8127"/>
<path d="M237.78 526.3L238.6 525.52C244.71 526.38 244.83 531.66 246.18 536.07C241.76 534.23 238.23 531.62 237.78 526.3Z" fill="#EF8127"/>
<path d="M219.15 466.73C219.083 466.603 219.023 466.473 218.97 466.34C220.04 467.43 221.5 469.24 219.3 469.68C217.1 470.12 216.3 471.89 214.84 472.96C214.634 473.157 214.388 473.308 214.118 473.402C213.849 473.496 213.563 473.532 213.279 473.506C212.995 473.481 212.719 473.395 212.471 473.254C212.223 473.113 212.008 472.921 211.84 472.69C211.664 472.515 211.528 472.304 211.439 472.072C211.351 471.84 211.314 471.592 211.329 471.344C211.344 471.096 211.412 470.854 211.527 470.635C211.643 470.415 211.804 470.223 212 470.07C213.92 468 215.91 466 219.15 466.73Z" fill="#EF8127"/>
</g>
<defs>
<clipPath id="clip0_1_2">
<rect width="778.48" height="778.48" fill="white"/>
</clipPath>
</defs>
</svg>
